<svg width="22" height="21" viewBox="0 0 22 21" fill="none" xmlns="http://www.w3.org/2000/svg">
<path d="M11.2068 19.3572V18.3384H1.0188C0.456132 18.3384 0 17.8823 0 17.3196C0 16.7569 0.456132 16.3008 1.0188 16.3008H11.2068V15.282C11.2068 14.7193 11.6629 14.2632 12.2256 14.2632C12.7883 14.2632 13.2444 14.7193 13.2444 15.282V19.3572C13.2444 19.9199 12.7883 20.376 12.2256 20.376C11.6629 20.376 11.2068 19.9199 11.2068 19.3572ZM19.3572 16.3008C19.9199 16.3008 20.376 16.7569 20.376 17.3196C20.376 17.8823 19.9199 18.3384 19.3572 18.3384H16.3008C15.7381 18.3384 15.282 17.8823 15.282 17.3196C15.282 16.7569 15.7381 16.3008 16.3008 16.3008H19.3572ZM8.15039 12.2256V8.15039C8.15039 7.58773 8.60653 7.13159 9.16919 7.13159C9.73186 7.13159 10.188 7.58773 10.188 8.15039V9.16919H20.376C20.9387 9.16919 21.3948 9.62532 21.3948 10.188C21.3948 10.7507 20.9387 11.2068 20.376 11.2068H10.188V12.2256C10.188 12.7883 9.73186 13.2444 9.16919 13.2444C8.60653 13.2444 8.15039 12.7883 8.15039 12.2256ZM5.094 9.16919C5.65666 9.16919 6.1128 9.62532 6.1128 10.188C6.1128 10.7507 5.65666 11.2068 5.094 11.2068H1.0188C0.456132 11.2068 0 10.7507 0 10.188C0 9.62532 0.456132 9.16919 1.0188 9.16919H5.094ZM11.2068 5.094V4.0752H1.0188C0.456132 4.0752 0 3.61906 0 3.0564C0 2.49373 0.456132 2.0376 1.0188 2.0376H11.2068V1.0188C11.2068 0.456132 11.6629 0 12.2256 0C12.7883 0 13.2444 0.456132 13.2444 1.0188V5.094C13.2444 5.65666 12.7883 6.1128 12.2256 6.1128C11.6629 6.1128 11.2068 5.65666 11.2068 5.094ZM19.3572 2.0376C19.9199 2.0376 20.376 2.49373 20.376 3.0564C20.376 3.61906 19.9199 4.0752 19.3572 4.0752H16.3008C15.7381 4.0752 15.282 3.61906 15.282 3.0564C15.282 2.49373 15.7381 2.0376 16.3008 2.0376H19.3572Z" fill="#7F7E7E"/>
</svg>
