<svg width="22" height="24" viewBox="0 0 22 24" fill="none" xmlns="http://www.w3.org/2000/svg">
<path d="M13.1607 1.46204C13.1607 0.653349 12.5073 0 11.6986 0C10.8899 0 10.2366 0.653349 10.2366 1.46204V10.9653C10.2366 11.3674 9.90763 11.6963 9.50557 11.6963C9.10351 11.6963 8.77455 11.3674 8.77455 10.9653V2.92408C8.77455 2.11539 8.1212 1.46204 7.31251 1.46204C6.50382 1.46204 5.85047 2.11539 5.85047 2.92408V15.3514C5.85047 15.4199 5.85047 15.493 5.85504 15.5616L3.09087 12.9299C2.35985 12.2354 1.20393 12.2629 0.504893 12.9939C-0.194145 13.7249 -0.162163 14.8808 0.568857 15.5799L5.70427 20.4685C7.67345 22.3464 10.2914 23.3926 13.0145 23.3926H13.8917C18.3326 23.3926 21.9329 19.7924 21.9329 15.3514V5.84816C21.9329 5.03947 21.2796 4.38612 20.4709 4.38612C19.6622 4.38612 19.0088 5.03947 19.0088 5.84816V10.9653C19.0088 11.3674 18.6799 11.6963 18.2778 11.6963C17.8757 11.6963 17.5468 11.3674 17.5468 10.9653V2.92408C17.5468 2.11539 16.8934 1.46204 16.0847 1.46204C15.2761 1.46204 14.6227 2.11539 14.6227 2.92408V10.9653C14.6227 11.3674 14.2937 11.6963 13.8917 11.6963C13.4896 11.6963 13.1607 11.3674 13.1607 10.9653V1.46204Z" fill="#7F7E7E"/>
</svg>
