<svg width="19" height="18" viewBox="0 0 19 18" fill="none" xmlns="http://www.w3.org/2000/svg">
<path d="M14.5981 6.67087H7.05975C5.80336 6.67087 4.71129 7.06972 3.78355 7.86744C2.85581 8.66515 2.39234 9.66229 2.39314 10.8589C2.39394 12.0554 2.85781 13.0526 3.78475 13.8503C4.71169 14.648 5.80336 15.0468 7.05975 15.0468H14.3588C14.6979 15.0468 14.9822 15.1617 15.212 15.3915C15.4417 15.6212 15.5562 15.9052 15.5554 16.2434C15.5546 16.5816 15.4397 16.866 15.2108 17.0966C14.9818 17.3271 14.6979 17.4416 14.3588 17.44H7.05975C5.1253 17.44 3.46486 16.8118 2.07844 15.5554C0.692016 14.299 -0.000797024 12.7335 6.88078e-07 10.8589C0.0007984 8.98423 0.69401 7.41872 2.07964 6.16233C3.46526 4.90593 5.1253 4.27773 7.05975 4.27773H14.5981L12.3247 2.00425C12.1053 1.78488 11.9956 1.50568 11.9956 1.16665C11.9956 0.827626 12.1053 0.548427 12.3247 0.329056C12.544 0.109685 12.8232 0 13.1623 0C13.5013 0 13.7805 0.109685 13.9999 0.329056L18.3075 4.6367C18.4272 4.75636 18.5121 4.88599 18.5624 5.02559C18.6126 5.16519 18.6374 5.31476 18.6366 5.4743C18.6358 5.63384 18.611 5.78341 18.5624 5.92301C18.5137 6.06261 18.4288 6.19224 18.3075 6.3119L13.9999 10.6195C13.7805 10.8389 13.5013 10.9486 13.1623 10.9486C12.8232 10.9486 12.544 10.8389 12.3247 10.6195C12.1053 10.4002 11.9956 10.121 11.9956 9.78195C11.9956 9.44292 12.1053 9.16372 12.3247 8.94435L14.5981 6.67087Z" fill="#7F7E7E"/>
</svg>
