<svg width="19" height="18" viewBox="0 0 19 18" fill="none" xmlns="http://www.w3.org/2000/svg">
<path d="M4.276 17.4375C3.93702 17.4375 3.65308 17.3226 3.42416 17.0929C3.19525 16.8632 3.0804 16.5793 3.0796 16.2411C3.0788 15.9029 3.19366 15.619 3.42416 15.3893C3.65467 15.1596 3.93862 15.0447 4.276 15.0447H11.574C12.8302 15.0447 13.9222 14.6459 14.8498 13.8483C15.7774 13.0507 16.2408 12.0537 16.24 10.8573C16.2392 9.66091 15.7758 8.66391 14.8498 7.86632C13.9238 7.06872 12.8318 6.66992 11.574 6.66992H4.03672L6.30988 8.94307C6.52922 9.16241 6.63889 9.44157 6.63889 9.78055C6.63889 10.1195 6.52922 10.3987 6.30988 10.618C6.09054 10.8374 5.81138 10.947 5.4724 10.947C5.13342 10.947 4.85426 10.8374 4.63492 10.618L0.327886 6.311C0.208246 6.19136 0.123302 6.06175 0.0730537 5.92217C0.022805 5.78259 -0.00152157 5.63304 7.36249e-05 5.47352C0.00166882 5.314 0.0267929 5.16445 0.0754464 5.02487C0.1241 4.88529 0.208246 4.75568 0.327886 4.63604L4.63492 0.329009C4.85426 0.109669 5.13342 0 5.4724 0C5.81138 0 6.09054 0.109669 6.30988 0.329009C6.52922 0.548349 6.63889 0.827508 6.63889 1.16649C6.63889 1.50547 6.52922 1.78463 6.30988 2.00397L4.03672 4.27712H11.574C13.5082 4.27712 15.1684 4.90523 16.5546 6.16145C17.9409 7.41767 18.6336 8.98295 18.6328 10.8573C18.632 12.7317 17.9393 14.297 16.5546 15.5532C15.17 16.8094 13.5098 17.4375 11.574 17.4375H4.276Z" fill="#7F7E7E"/>
</svg>
