<svg width="24" height="24" viewBox="0 0 24 24" fill="none" xmlns="http://www.w3.org/2000/svg">
<path d="M16.5898 9.57227C16.5898 8.65078 16.4083 7.73806 16.0557 6.88672C15.703 6.03541 15.1858 5.26192 14.5342 4.61035C13.8826 3.95879 13.1091 3.4415 12.2578 3.08887C11.4065 2.73624 10.4937 2.55469 9.57227 2.55469C8.65078 2.5547 7.73806 2.73623 6.88672 3.08887C6.03538 3.44152 5.26194 3.95876 4.61035 4.61035C3.95876 5.26194 3.44152 6.03538 3.08887 6.88672C2.73623 7.73806 2.5547 8.65078 2.55469 9.57227C2.55469 10.4937 2.73624 11.4065 3.08887 12.2578C3.4415 13.1091 3.95879 13.8826 4.61035 14.5342C5.26192 15.1858 6.03541 15.703 6.88672 16.0557C7.73806 16.4083 8.65078 16.5898 9.57227 16.5898C10.4938 16.5898 11.4064 16.4083 12.2578 16.0557C13.1092 15.703 13.8826 15.1858 14.5342 14.5342C15.1858 13.8826 15.703 13.1092 16.0557 12.2578C16.4083 11.4064 16.5898 10.4938 16.5898 9.57227ZM19.1455 9.57227C19.1455 10.8293 18.8971 12.074 18.416 13.2354C18.0989 14.0008 17.6828 14.719 17.1826 15.375L23.5107 21.7041C24.0097 22.2031 24.0097 23.0117 23.5107 23.5107C23.0117 24.0097 22.2031 24.0097 21.7041 23.5107L15.375 17.1826C14.719 17.6828 14.0008 18.0989 13.2354 18.416C12.074 18.8971 10.8293 19.1455 9.57227 19.1455C8.31518 19.1455 7.07057 18.8971 5.90918 18.416C4.74793 17.935 3.69254 17.2305 2.80371 16.3418C1.91479 15.4529 1.20959 14.3968 0.728516 13.2354C0.2475 12.074 -1.87313e-08 10.8293 0 9.57227C1.42441e-05 8.3152 0.247463 7.07056 0.728516 5.90918C1.20959 4.74775 1.91479 3.69263 2.80371 2.80371C3.69263 1.91479 4.74775 1.20959 5.90918 0.728516C7.07056 0.247463 8.3152 1.42602e-05 9.57227 0C10.8293 0 12.074 0.247499 13.2354 0.728516C14.3968 1.20959 15.4529 1.91479 16.3418 2.80371C17.2305 3.69254 17.935 4.74793 18.416 5.90918C18.8971 7.07057 19.1455 8.31518 19.1455 9.57227Z" fill="#7F7E7E"/>
</svg>
